<?xml version="1.0" standalone="no"?><!DOCTYPE svg PUBLIC "-//W3C//DTD SVG 1.1//EN" "http://www.w3.org/Graphics/SVG/1.1/DTD/svg11.dtd"><svg t="1758730423608" class="icon" viewBox="0 0 1030 1024" version="1.1" xmlns="http://www.w3.org/2000/svg" p-id="22323" xmlns:xlink="http://www.w3.org/1999/xlink" width="201.171875" height="200"><path d="M853.363584 132.503669a72.804214 72.804214 0 0 0-123.767163 52.419033 72.804214 72.804214 0 0 0 26.209517 56.059245 364.021068 364.021068 0 0 1 110.662405 350.188267 358.196731 358.196731 0 0 1-263.551253 270.831674A364.021068 364.021068 0 0 1 147.162713 509.629495a364.021068 364.021068 0 0 1 119.39891-267.191464A78.628551 78.628551 0 0 0 292.77114 186.378787a72.804214 72.804214 0 0 0-123.039121-53.875118 513.997748 513.997748 0 0 0-128.863458 582.433708 475.411514 475.411514 0 0 0 274.471885 267.919506A509.629495 509.629495 0 0 0 853.363584 132.503669z" fill="#2c2c2c" p-id="22324"></path><path d="M511.183781 436.825281a72.804214 72.804214 0 0 0 72.804213-72.804213V72.804214a72.804214 72.804214 0 0 0-145.608427 0v291.216854a72.804214 72.804214 0 0 0 72.804214 72.804213z" fill="#2c2c2c" p-id="22325"></path></svg>