<?xml version="1.0" standalone="no"?><!DOCTYPE svg PUBLIC "-//W3C//DTD SVG 1.1//EN" "http://www.w3.org/Graphics/SVG/1.1/DTD/svg11.dtd"><svg t="1758725712880" class="icon" viewBox="0 0 1024 1024" version="1.1" xmlns="http://www.w3.org/2000/svg" p-id="1592" xmlns:xlink="http://www.w3.org/1999/xlink" width="200" height="200"><path d="M512.624 509.607m-449.212 0a449.212 449.212 0 1 0 898.424 0 449.212 449.212 0 1 0-898.424 0Z" fill="#77B3D4" p-id="1593"></path><path d="M469.981 416.158c-5.851-67.297-76.057-100.317-79.028-101.665a14.927 14.927 0 0 0-8.914-1.195c-81.05 13.447-93.241 60.619-93.731 62.579a15.176 15.176 0 0 0 0.306 8.27c96.672 299.94 297.581 355.535 363.622 373.822 5.085 1.409 9.281 2.542 12.467 3.584 1.532 0.521 3.124 0.735 4.717 0.735 2.175 0 4.35-0.459 6.341-1.378 2.022-0.919 49.745-23.402 61.415-96.733 0.521-3.186 0-6.494-1.47-9.373-1.041-2.022-26.006-49.53-95.232-66.316-4.84-1.256-9.802 0.031-13.539 3.216-21.84 18.654-52.012 38.534-65.03 40.586-87.268-42.669-136.002-124.546-137.84-140.076-1.072-8.73 18.93-39.392 41.934-64.325a15.286 15.286 0 0 0 3.982-11.731z" fill="#231F20" p-id="1594"></path><path d="M469.981 388.082c-5.851-67.297-76.057-100.317-79.028-101.665a14.927 14.927 0 0 0-8.914-1.195c-81.05 13.447-93.241 60.619-93.731 62.579a15.176 15.176 0 0 0 0.306 8.27c96.672 299.94 297.581 355.535 363.622 373.822 5.085 1.409 9.281 2.542 12.467 3.584 1.532 0.521 3.124 0.735 4.717 0.735 2.175 0 4.35-0.459 6.341-1.378 2.022-0.919 49.745-23.402 61.415-96.733 0.521-3.186 0-6.494-1.47-9.373-1.041-2.022-26.006-49.531-95.232-66.316-4.84-1.256-9.802 0.031-13.539 3.216-21.84 18.654-52.012 38.534-65.03 40.586-87.268-42.669-136.002-124.546-137.84-140.076-1.072-8.73 18.93-39.392 41.934-64.325a15.286 15.286 0 0 0 3.982-11.731z" fill="#FFFFFF" p-id="1595"></path></svg>